<?xml version="1.0" encoding="utf-8"?>
<!-- Generator: Adobe Illustrator 27.2.0, SVG Export Plug-In . SVG Version: 6.00 Build 0)  -->
<svg aria-label="Logo RATP CAP ile-de-france" version="1.1" id="Calque_1" xmlns="http://www.w3.org/2000/svg" xmlns:xlink="http://www.w3.org/1999/xlink" x="0px" y="0px"
	 width="1111.0797119px" height="522.5244141px" viewBox="0 0 1111.0797119 522.5244141"
	 enable-background="new 0 0 1111.0797119 522.5244141" xml:space="preserve">
<g>
	<g>
		<rect fill="none" width="1111.0797119" height="522.5244141"/>
	</g>
	<g>
		<g>
			<g>
				<path fill="#0A0082" d="M282.8320923,262.7341003c-2.2088928-1.464386-4.7128906-2.3775024-7.4902954-2.7055969
					c-3.5838928-0.4756165-6.4725952-1.2373047-8.5857849-2.1885071c-2.1407166-0.9511108-3.1759338-3.531189-3.1759338-7.625
					c0-1.6542969-0.3943787-3.4082031-1.1464844-5.2635956c-0.7030945-1.8809052-2.1600952-2.8652954-4.3299866-2.8652954
					c-1.343811,0-2.6700134,0.4277954-3.9179077,1.2256012c-1.2540131,0.8613892-2.3204041,1.8447876-3.1290131,2.9599915
					c0.1915131-1.469696,0.3945007-2.9599915,0.585907-4.4384918c0.2071075-1.5078125,0.3105927-2.9804993,0.3105927-4.4824066
					c0-1.8271942-0.6445923-3.1651001-1.9902954-4.0733032c-1.3378906-0.9208984-2.8006897-1.718689-4.4297028-2.3573914
					c-1.6776886-0.6885071-3.2381897-1.3066101-4.7070007-1.8720093c-1.4804993-0.5908966-2.3475952-1.4843903-2.4628906-2.631897
					c-0.3457031-2.2929993-0.6444092-4.6445007-0.8944092-7.0762024c-0.2481995-2.378891-0.5410919-4.7030945-0.8633881-7.0487976
					c-0.648407-5.4492035-3.6973114-8.1914062-9.1640015-8.1914062c-2.2696075,0-4.6054993,0.210907-6.996109,0.5215149
					c-2.375,0.3222961-4.6835938,0.6190948-6.9960938,0.9931946c-2.4589996,0.3182983-4.6952972,0.6356964-6.6327972,0.9521027
					c-1.9454041,0.3535004-4.0234985,0.5175934-6.1289978,0.5175934c-4.9101105,0-9.6660004-1.2353973-14.2362976-3.6679993
					c-4.6094055-2.467804-8.8027039-5.2265015-12.5508118-8.3594055
					c-9.1640015-7.652298-18.7753906-13.5448914-28.8338928-17.7381897
					c-10.1036072-4.1484985-21.1054993-6.2559052-33.0508041-6.2559052c-2.2812958,0-4.8514938,0.1591949-7.6327972,0.4062958
					c-2.7850952,0.2714081-5.572197,0.614212-8.3398972,1.0839081c-2.7947998,0.5175934-5.5311966,1.1739044-8.2031021,1.9776001
					c-2.7245941,0.8612976-5.1288986,1.8329926-7.2733994,3.0223999v16.6425934
					c5.097702-2.3202972,10.7442017-4.0067902,16.9550018-5.0848999c6.2167969-1.0771942,12.0331955-1.6221008,17.4219971-1.6221008
					c7.5565033,0,15.0057983,1.1406097,22.3865967,3.4082031c3.7364044,1.3115082,7.9434052,3.4140015,12.6114044,6.3632965
					c4.7030945,2.9179077,8.5117035,5.6543121,11.4550018,8.2548065
					c5.2285004,4.4013977,11.0469971,8.3448029,17.4219971,11.8339996
					c6.3710938,3.4922028,13.0879059,5.2353973,20.1463928,5.2353973c1.7833099,0,3.7676086-0.1474915,5.9062042-0.5117035
					c2.1152954-0.3007965,4.3085938-0.7402954,6.6094055-1.2158966c1.316391-0.316391,2.8280945-0.7021027,4.5547943-1.2373047
					c1.6914062-0.4754944,3.2362061-0.7010956,4.5447998-0.7010956c1.6427002,0,2.7344971,0.4217987,3.3106079,1.3202972
					c0.5682983,0.8945007,0.9432983,2.1083984,1.089798,3.5781097l0.9883881,13.0273895
					c0.1953125,1.680603,0.7675018,2.9638062,1.7226105,3.9531097c1.035202,0.9510956,2.1875,1.7167969,3.5213928,2.2401886
					c1.3047028,0.4766083,2.7577972,0.7774048,4.3263092,0.9629059c1.5740967,0.1728973,2.9393921,0.4062958,4.1053925,0.7021027
					c0.652298,0.190506,1.1307983,0.7256012,1.3652039,1.6591949c0.2655945,0.8877106,0.4492035,1.4804993,0.6212006,1.808609
					c0.1815033,0.6747894,0.2812042,1.5361938,0.3768921,2.7216949c0.0761108,1.1356964,0.2636108,2.2510071,0.4862976,3.3027039
					c0.25,1.0771942,0.6406097,2.0381012,1.125,2.8329926c0.5019073,0.8125,1.3223114,1.2460938,2.4844055,1.2460938
					c1.3202972,0,2.363205-0.343689,3.1621094-1.0145874c0.828186-0.6083984,1.906189-0.9775085,3.2049866-0.9775085
					c0.8418121,0,1.4396057,0.3182983,1.8731995,0.898407c0.3905029,0.539093,0.6015015,1.2383118,0.6015015,2.0878906
					c0,0.8085938-0.0839996,1.5263062-0.2518921,2.1914062c-0.1661072,0.656189-0.2384033,1.4165039-0.2384033,2.2261047
					c0,3.1025085,0.7167969,5.2167969,2.2129059,6.2998047c1.476593,1.039978,3.0722961,1.7284851,4.8067017,2.0722046
					c1.6875,0.327179,3.2323914,0.6435852,4.625,0.9776001c1.4393921,0.3104858,2.125,1.2469788,2.125,2.7157898
					c0,0.5068054-0.3144226,1.4530945-0.8731079,2.9482117c-0.5955811,1.4697876-1.2850952,3.2148743-2.1073914,5.1806946
					c-0.8164062,1.9335938-1.6641235,4.0043945-2.5645142,6.1625977c-0.8789062,2.1289062-1.6620789,3.9375-2.3182983,5.406189
					c-4.4256897,11.6309204-8.0741882,23.9131165-10.9433899,36.8457031
					c-2.8652039,12.8359985-4.3066101,25.5195923-4.3066101,37.9707031c0,5.5606079,0.3633118,11.1464844,0.964798,16.6270142
					c0.6406097,5.4911804,1.8574066,10.859375,3.621109,16.1034851h14.9179993
					c-1.625-4.7265015-2.7109985-9.6758118-3.2088928-14.8301086c-0.5527954-5.156189-0.7911072-10.2948914-0.7911072-15.3583984
					c0-15.5830078,1.9179077-30.3397827,5.7579041-44.3291016c3.8318787-14,8.4120789-27.7967834,13.6560974-41.4154968
					c0.8085938-2.2948914,2.0176086-5.2020874,3.6699829-8.7070007c1.6230164-3.5137024,2.4432983-6.4364929,2.4432983-8.756897
					C286.1425781,266.5231018,285.0234985,264.2145996,282.8320923,262.7341003z M691.5463867,199.1242065h-31.6875v80.5689087
					h13.5625v-27.9361115h18.125c18.6289062,0,33.8046875-3.9707031,33.8046875-26.2714081
					C725.3510742,203.1828003,709.8549805,199.1242065,691.5463867,199.1242065z M691.2105103,239.6457062h-17.7891235v-28.4121094
					h17.7891235c13.718689,0,21.234375,2.7656097,21.234375,14.5957031
					C712.4448853,237.6613007,705.6713867,239.6457062,691.2105103,239.6457062z M582.2730713,211.2306976h26.8007202v68.4593964
					h13.453064v-68.4593964h26.8047485v-12.1074982h-67.0585327V211.2306976z M496.5302734,225.4846039
					c0-22.3028107-15.5-26.3614044-33.8085938-26.3614044h-31.6835938v80.5689087h13.5585938v-27.9360046h18.125
					c1.468811,0,2.9102173-0.0292969,4.3242188-0.0839996l14.828186,28.0200043h15.3085938l-17.8163757-29.6899109
					C489.6005859,247.2404022,496.5302734,240.545105,496.5302734,225.4846039z M462.3858032,239.6446991h-17.7891235v-28.4140015
					h17.7891235c13.7225952,0,21.234375,2.7675018,21.234375,14.5975952
					C483.6201782,237.6604004,476.8505859,239.6446991,462.3858032,239.6446991z M541.0938721,199.1231995L504.609375,279.690094
					H518.75l8.5976562-19.543396h39.984436l8.5971069,19.543396h14.3632812l-36.5971069-80.5668945H541.0938721z
					 M532.3125,248.8186035l15.0274048-34.1387024l15.031189,34.1387024H532.3125z"/>
			</g>
			<path fill="#00AA91" d="M615.1791992,325.8410034c-4.4179077-2.2616882-9.5350952-3.4082031-15.2050171-3.4082031h-23.1503906
				v54.5292969h23.1503906c5.6738281,0,10.7890015-1.1473999,15.2070312-3.4092102
				c4.4472656-2.2762756,7.9511719-5.5233765,10.4159546-9.6503906c2.4570312-4.1141968,3.703125-8.8945007,3.703125-14.2049866
				c0-5.311615-1.2460938-10.0909119-3.703125-14.2061157C623.1342773,331.3674011,619.6303711,328.1203003,615.1791992,325.8410034
				z M617.0268555,359.3322144c-1.6132812,2.7421875-3.9413452,4.9052734-6.9179688,6.4306946
				c-3.0136108,1.5429993-6.5742188,2.3251953-10.5820312,2.3251953H586.659668v-36.782196h12.8671875
				c4.0078125,0,7.5684204,0.7832031,10.5820312,2.3260803c2.9766235,1.5245056,5.3027954,3.6875,6.9160156,6.4307251
				c1.6210938,2.7548828,2.4414673,5.9971008,2.4414673,9.6347961S618.6459961,356.577301,617.0268555,359.3322144z
				 M543.5664673,353.7237854h22.4121094v-8.5751953h-22.4121094V353.7237854z M431.0380859,376.9620972h9.8351135v-54.5292969
				h-9.8351135V376.9620972z M507.8497009,353.6495972h26.1210022v-8.7246094h-26.1210022v-13.6190796h29.320282v-8.8731079
				H498.015686v54.5292969h40.1972046v-8.8739929h-30.3631897V353.6495972z M648.7026978,353.6495972h26.1190796v-8.7246094
				h-26.1190796v-13.6190796h29.3203125v-8.8731079h-39.1582031v54.5292969h40.2011719v-8.8739929h-30.3632812V353.6495972z
				 M463.890686,322.4328003h-9.8339844v54.5292969h38.0389709v-8.8739929H463.890686V322.4328003z M432.0450134,308.5040894
				l-12.3457336,12.0762024h9.8437195l6.4131775-5.3710938l6.4110107,5.3710938h9.8448181l-12.3448181-12.0762024H432.0450134z
				 M837.0571899,322.4328003l-24.6729126,54.5292969h10.2988892l5.7304077-13.0342102h26.1240234l5.7304688,13.0342102h10.4512329
				l-24.7520142-54.5292969H837.0571899z M832.0727539,355.5763855l9.4042969-21.3779907l9.4043579,21.3779907H832.0727539z
				 M684.4174805,353.7237854h22.4121094v-8.5751953h-22.4121094V353.7237854z M913.0083008,359.1095886l-29.484314-36.6767883
				h-7.8731079v54.5292969h9.8359985v-36.6766968l29.4863281,36.6766968h7.8710938v-54.5292969h-9.8359985V359.1095886z
				 M1000.1480103,353.6495972h26.1229858v-8.7246094h-26.1229858v-13.6190796h29.3202515v-8.8731079h-39.1542358v54.5292969
				h40.1973267v-8.8739929h-30.3633423V353.6495972z M951.6469727,333.3146973
				c2.9317017-1.6298828,6.2675781-2.4560852,9.9102173-2.4560852c5.5643921,0,10.0761108,1.9003906,13.7948608,5.8104858
				l0.8340454,0.8760071l6.5253906-6.3320007l-0.7598267-0.8565063c-2.4921875-2.805603-5.546875-4.9530945-9.078064-6.3847046
				c-3.5039062-1.4169922-7.4102173-2.1358032-11.6113281-2.1358032c-5.390686,0-10.3417969,1.2159119-14.7167969,3.6114197
				c-4.3886719,2.4032898-7.8731079,5.7597046-10.3516235,9.9755859c-2.4804688,4.2148132-3.7401733,9.0175171-3.7401733,14.2744141
				c0,5.2568054,1.2597046,10.0594788,3.7382202,14.2733765c2.4804688,4.2158203,5.9492798,7.5723267,10.3144531,9.9756165
				c4.3516235,2.3955078,9.2910156,3.6112976,14.6816406,3.6112976c4.2050781,0,8.1270142-0.7323914,11.6524048-2.1748047
				c3.5546875-1.4530945,6.6190796-3.6141968,9.1112671-6.4208984l0.7598267-0.8554993l-6.5253906-6.3299866l-0.8340454,0.875
				c-3.7675781,3.9589844-8.2792969,5.8837891-13.7948608,5.8837891c-3.6464844,0-6.9805298-0.8262024-9.9102173-2.4560852
				c-2.9199219-1.6240234-5.234375-3.890625-6.875-6.7383118c-1.6464844-2.8554077-2.4804688-6.0996094-2.4804688-9.6434937
				c0-3.5440063,0.8339844-6.7881165,2.4804688-9.6436157C946.4125977,337.2062988,948.7270508,334.9396973,951.6469727,333.3146973
				z M717.675293,376.9620972h9.8359985v-21.0770874h26.1229858v-8.7998047h-26.1229858v-15.7792969h29.3203125v-8.8731079
				h-39.156311V376.9620972z M805.3725586,352.7677917c2.1191406-3.0243835,3.1953125-6.7138977,3.1953125-10.9657898
				c0-6.0049133-2.0996094-10.7988892-6.2362671-14.25c-4.0723267-3.3974915-9.6875-5.1192017-16.6914062-5.1192017h-21.5137329
				v54.5292969h9.8359375v-15.8641968h11.6777954c0.6932983,0,1.593689-0.0361938,2.6835938-0.1065063l11.2069702,15.9707031
				h11.0410156l-12.8046875-18.1416016C800.9702759,357.4356995,803.5230103,355.4045105,805.3725586,352.7677917z
				 M795.4487915,349.5920105c-2.25,1.8457031-5.625,2.781189-10.0332031,2.781189h-11.453186v-21.0672913h11.453186
				c4.4100952,0,7.7871094,0.9248047,10.0390015,2.7489929c2.2050781,1.789093,3.2774048,4.3232117,3.2774048,7.7471008
				C798.7319946,345.2297058,797.6577759,347.7766113,795.4487915,349.5920105z M324.226593,154.0621948
				c-11.0527039-10.75-23.9941101-19.191391-38.8046875-25.2899933
				c-14.8262024-6.1865997-30.5722046-9.2432022-47.2655182-9.2432022c-18.6777954,0-36.203186,3.9111023-52.5606995,11.7656021
				c-16.3592987,7.9004059-30.4452972,19.0254059-42.2362976,33.4579926
				c5.5429993,1.463913,11.0254059,3.7006989,16.4609985,6.6177063c5.3925018,2.9541016,10.2403107,6.2978973,14.4863129,10.094696
				c8.3671875-8.6855011,18.0175934-15.4710999,28.968689-20.4125977
				c11.009903-4.9452972,22.5332031-7.3768921,34.6699982-7.3768921c11.9414062,0,23.1717987,2.2362976,33.6367035,6.6483917
				c10.4941101,4.4286957,19.6542969,10.5171051,27.4765015,18.2720032
				c7.9024048,7.782196,14.093811,16.8612976,18.5878906,27.253891c4.5117188,10.4043121,6.7520142,21.5762024,6.7520142,33.5576019
				c0,7.6885071-0.9942017,15.378006-2.9530945,23.0948029c-1.9571228,7.700592-4.8262024,15.0190125-8.5899048,22.0072937
				c-3.8085938,6.9477234-8.3262024,13.3168945-13.6542969,19.1089172
				c-5.3437195,5.8085938-11.4042969,10.7070007-18.1211243,14.6171875
				c-2.2635803,6.7547913-4.1132812,12.9062195-5.3865967,18.5614929
				c-1.3379822,5.6699219-2.0098877,11.985321-2.0098877,19.0420227c12.968811-3.9112244,24.7070923-9.6670227,35.256012-17.2041016
				c10.5760803-7.4931946,19.6521912-16.3780212,27.1502991-26.6289062
				c7.5565796-10.2431946,13.421875-21.5274048,17.6112976-33.9086914
				c4.1991882-12.367218,6.2442017-25.2779083,6.2442017-38.6900177c0-17.027298-3.2071228-32.8778992-9.5586243-47.3730011
				C343.9844055,177.4221039,335.2814026,164.7624054,324.226593,154.0621948z M176.7657013,301.1340027
				c-7.8242035-7.8525085-14.0722046-17.1059875-18.6446075-27.7290039
				C153.5507965,262.7351074,151.25,251.3780975,151.25,239.2550964c0-8.3506012,1.0625-16.2987976,3.1875-23.8554993
				c-3.9432983-4.0429993-8.8612976-7.5888977-14.7597046-10.5332031c-5.9414062-2.9598999-11.7773972-4.6727905-17.5-5.1473999
				c-2.6581955,6.8592987-4.4609985,13.7031097-5.4433975,20.4941101
				c-1.0076981,6.7977905-1.4961014,13.7832031-1.4961014,20.976593c0,13.7460022,2.2481003,26.8735046,6.7871017,39.3128967
				c4.5253983,12.4605103,10.8008041,23.7084961,18.8456955,33.8081055
				c8.0704041,10.0253906,17.6524048,18.6856079,28.7911072,25.8633118c11.1327972,7.2363892,23.4178925,12.382782,36.8515015,15.5
				c4.4198914,0.9726868,8.8691864,1.6767883,13.3984985,2.0898743c4.4881897,0.421814,8.9648895,0.6533203,13.3945007,0.8222046
				c0.4608917-5.3837891,1.1854858-10.7635803,2.0682983-16.1600952c0.8984985-5.4317017,2.0136871-10.7597961,3.3106995-16.0019836
				c-12.1368103,0-23.509903-2.242218-34.1427002-6.7695007
				C193.9042969,315.177887,184.6523895,308.9729004,176.7657013,301.1340027z M974.0092773,258.5432129h19.9746094
				c14.0369263,0,20.5349121-2.5244141,27.0349121-7.8545074c6.109375-4.9394989,10.1386719-14.2149048,10.1386719-22.4746094
				c0-8.2587891-3.8981934-16.8251953-10.9179688-22.5439911c-5.5897827-4.2881012-12.0878296-6.5458984-28.3359375-6.5458984
				h-29.1149902c-4.7307129,0-8.920105,3.6689911-8.920105,8.3993988v72.1695099h20.1408081V258.5432129z M974.0092773,216.2453003
				h18.8045044c4.8085938,0,9.2286987,0.2998047,13.1268921,2.3798981c3.7717285,1.8193054,6.6289062,4.5361023,6.6289062,9.8525085
				c0,5.3183899-2.8571777,8.4960938-6.3688965,10.3154907c-3.9005737,2.0810089-8.1875,2.6289062-12.607605,2.6289062h-19.5838013
				V216.2453003z M939.7700806,199.1242065h-19.1348267v11.6620941
				c-4.0272827-6.5048065-12.6054688-14.3417969-27.3886719-14.3417969c-22.7695312,0-41.2871094,17.4462891-41.2871094,43.0244904
				c0,22.9160156,15.2539062,43.1723022,41.2734985,43.1723022c11.3828125,0,22.3671265-4.7323914,27.4022827-14.1943054v3.1162109
				c0,4.7294922,3.734436,8.1299133,8.4629517,8.1299133h10.671875V199.1242065z M920.6801758,240.2071991
				c-0.2949219,3.9922028-1.1835938,7.8368988-3.1054077,11.3847961
				c-3.6953735,7.3925934-10.796875,13.0121918-21.5899048,13.0121918c-17.4453125,0-24.6972656-14.6381836-24.6972656-24.6908875
				v-0.1493988c0-12.5664062,8.8769531-25.2812958,24.5488892-25.2812958c11.6796875,0,19.2265015,6.6532898,22.6289062,14.3407898
				C920.0903931,232.3722992,920.8286743,236.364502,920.6801758,240.2071991z M803.1831665,282.6051941
				c20.9941406,0,37.1102905-13.9911804,41.6923218-32.1186981h-19.8114624
				c-2.9570312,7.0497894-9.7578735,13.9477997-21.8808594,13.9477997c-13.75,0-23.9511719-10.3022919-23.9511719-24.9379883
				c0-7.0967102,2.5116577-13.5742035,6.6522827-18.0098114c4.7305298-4.5839996,10.2012329-7.0428925,17.2988892-6.8954926
				c10.6445312,0,18.4804077,5.6817017,21.8808594,14.7460938h19.8114624
				c-4.7304077-20.1416016-22.0302124-32.7919922-42.4326172-32.7919922c-24.2460938,0-42.7285156,18.9561005-42.7285156,42.9062958
				C759.7143555,262.6637878,777.4584961,282.6051941,803.1831665,282.6051941z"/>
		</g>
	</g>
</g>
</svg>
